<?xml version="1.0" encoding="UTF-8" standalone="no"?>
<!-- Created with Inkscape (http://www.inkscape.org/) -->

<svg
   xmlns:dc="http://purl.org/dc/elements/1.1/"
   xmlns:cc="http://creativecommons.org/ns#"
   xmlns:rdf="http://www.w3.org/1999/02/22-rdf-syntax-ns#"
   xmlns:svg="http://www.w3.org/2000/svg"
   xmlns="http://www.w3.org/2000/svg"
   xmlns:sodipodi="http://sodipodi.sourceforge.net/DTD/sodipodi-0.dtd"
   xmlns:inkscape="http://www.inkscape.org/namespaces/inkscape"
   id="Layer_1"
   xml:space="preserve"
   version="1.0"
   viewBox="0 0 187.93751 163"
   inkscape:version="0.92.0 r15299"
   sodipodi:docname="lock2.svg"
   width="200.46667"
   height="173.86667"><defs
   id="defs16"><clipPath
     clipPathUnits="userSpaceOnUse"
     id="clipPath3695"><g
       inkscape:label="Clip"
       id="use3697"><rect
         clip-path="url(#clipPath3724)"
         y="4.294611"
         x="4.4898205"
         height="54.073055"
         width="99.947304"
         id="rect3782"
         style="fill:#00ffff;stroke-width:0.9375" /></g></clipPath><clipPath
     clipPathUnits="userSpaceOnUse"
     id="clipPath3724"><path
       id="path3726"
       style="fill:#242424;fill-rule:evenodd;stroke-width:1"
       d="m 56.528162,29.980467 c 12.105,0 19.902,12.698 20.064,28.445001 H 36.464161 c 0.163,-15.747001 7.959,-28.445001 20.064001,-28.445001 z m 0,-15.723 c -18.861001,0 -34.144,19.958 -34.144,44.575 l 0.008,0.618 c -6.415,2.349 -10.982999,8.487 -10.982999,15.69 v 39.206003 c 0,17.46 20.201999,31.61 45.119,31.61 24.918,0 45.121007,-14.15 45.121007,-31.61 V 75.140467 c 0,-7.203 -4.570005,-13.341 -10.984007,-15.69 l 0.008,-0.618 c 0,-24.617 -15.283999,-44.575 -34.144999,-44.575 z M 43.724161,95.505465 c 0,-7.048997 5.731,-12.763997 12.804001,-12.763997 7.072999,0 12.804,5.715 12.804,12.763997 0,4.512005 -2.349,8.481005 -5.894001,10.751005 v 11.74 h -13.82 v -11.74 c -3.545,-2.27 -5.894,-6.239 -5.894,-10.751005 z"
       inkscape:connector-curvature="0" /></clipPath></defs><sodipodi:namedview
   pagecolor="#ffffff"
   bordercolor="#666666"
   borderopacity="1"
   objecttolerance="10"
   gridtolerance="10"
   guidetolerance="10"
   inkscape:pageopacity="0"
   inkscape:pageshadow="2"
   inkscape:window-width="1920"
   inkscape:window-height="1018"
   id="namedview14"
   showgrid="false"
   inkscape:zoom="3.395902"
   inkscape:cx="173.99217"
   inkscape:cy="56.507622"
   inkscape:window-x="1912"
   inkscape:window-y="-8"
   inkscape:window-maximized="1"
   inkscape:current-layer="layer2" />

<metadata
   id="metadata11"><rdf:RDF><cc:Work><dc:format>image/svg+xml</dc:format><dc:type
         rdf:resource="http://purl.org/dc/dcmitype/StillImage" /><cc:license
         rdf:resource="http://creativecommons.org/publicdomain/zero/1.0/" /><dc:publisher><cc:Agent
           rdf:about="http://openclipart.org/"><dc:title>Openclipart</dc:title></cc:Agent></dc:publisher><dc:title></dc:title><dc:date>2010-06-25T18:33:28</dc:date><dc:description>a simple rounded padlock.</dc:description><dc:source>https://openclipart.org/detail/68545/padlock-icon-(rounded)-by-jaschon</dc:source><dc:creator><cc:Agent><dc:title>jaschon</dc:title></cc:Agent></dc:creator><dc:subject><rdf:Bag><rdf:li>black</rdf:li><rdf:li>black and white</rdf:li><rdf:li>key</rdf:li><rdf:li>keyhole</rdf:li><rdf:li>lock</rdf:li><rdf:li>padlock</rdf:li><rdf:li>security</rdf:li><rdf:li>silhouette</rdf:li><rdf:li>symbol</rdf:li><rdf:li>tool</rdf:li></rdf:Bag></dc:subject></cc:Work><cc:License
       rdf:about="http://creativecommons.org/publicdomain/zero/1.0/"><cc:permits
         rdf:resource="http://creativecommons.org/ns#Reproduction" /><cc:permits
         rdf:resource="http://creativecommons.org/ns#Distribution" /><cc:permits
         rdf:resource="http://creativecommons.org/ns#DerivativeWorks" /></cc:License></rdf:RDF></metadata><g
   inkscape:groupmode="layer"
   id="layer1"
   inkscape:label="Layer 1"><g
     id="g3702"
     transform="translate(41.901798,12.63967)" /></g><g
   inkscape:groupmode="layer"
   id="layer2"
   inkscape:label="Layer 2"><g
     id="g3789"
     transform="translate(32.852097,-11.31879)"><path
       sodipodi:nodetypes="sccssccsssssccssssccccs"
       inkscape:connector-curvature="0"
       d="m 47.996117,70.572216 c 11.555229,-0.09351 17.498676,0.141663 19.868791,0.139611 L 27.87494,70.918878 c 20.259211,0.144574 9.164836,-0.258001 20.121177,-0.346662 z m 0,0.215168 C 31.931473,70.871523 29.99909,70.622417 16.780259,71.440229 l -2.977319,0.503649 c -6.4150009,2.349 -10.9830009,8.487 -10.9830009,15.690003 v 39.205999 c 0,17.46 20.2020019,31.61 45.1190019,31.61 24.918001,0 45.120999,-14.15 45.120999,-31.61 V 87.633881 c 0,-7.203003 -4.569998,-13.341003 -10.983998,-15.690003 l 0.008,-0.618 C 72.659309,70.835937 64.386167,70.701541 47.996117,70.787384 Z M 35.13494,107.99888 c 0,-7.04899 5.731001,-12.763999 12.804001,-12.763999 7.073,0 12.804,5.715009 12.804,12.763999 0,4.512 -2.349,8.481 -5.894,10.751 v 11.74 h -13.82 v -11.74 c -3.545001,-2.27 -5.894001,-6.239 -5.894001,-10.751 z"
       style="fill:#242424;fill-rule:evenodd;stroke-width:1"
       id="path3" /><path
       inkscape:connector-curvature="0"
       id="path3741"
       d="m 68.002942,70.918878 c 0.715487,-9.32065 2.069279,-14.90339 5.195284,-21.42425 2.27998,-4.756048 4.567174,-8.098673 7.862359,-11.490469 4.217269,-4.340913 9.145023,-7.316424 14.509787,-8.761402 1.778325,-0.478984 2.184144,-0.512656 6.293118,-0.522164 3.92187,-0.0091 4.57659,0.03652 6.11393,0.425822 10.55716,2.67336 19.37316,11.224553 24.19842,23.471563 2.13325,5.4144 3.24462,10.75054 3.75061,18.00809 l 0.11908,1.70808 h -6.83879 -6.8388 l -0.0906,-0.43922 c -0.0498,-0.24157 -0.14357,-1.1859 -0.20837,-2.09851 -0.41799,-5.88575 -2.1456,-12.0717 -4.43543,-15.88162 -2.84716,-4.73724 -6.26169,-7.719364 -10.59706,-9.255088 -1.14954,-0.407204 -1.83131,-0.498992 -4.29461,-0.578198 -3.300903,-0.106138 -4.43666,0.04883 -6.669822,0.910022 -3.2154,1.23999 -6.557514,4.027494 -8.71319,7.267274 -2.985274,4.48659 -4.937441,10.63759 -5.423827,17.0897 -0.110696,1.46841 -0.245179,2.74089 -0.298853,2.82774 -0.05367,0.0868 -3.167569,0.1579 -6.919767,0.1579 h -6.822178 z"
       style="fill:#242424;fill-opacity:1;stroke-width:0.19520958" /></g></g></svg>