<?xml version="1.0" encoding="UTF-8" standalone="no"?>
<!-- Created with Inkscape (http://www.inkscape.org/) -->

<svg
   xmlns:dc="http://purl.org/dc/elements/1.1/"
   xmlns:cc="http://creativecommons.org/ns#"
   xmlns:rdf="http://www.w3.org/1999/02/22-rdf-syntax-ns#"
   xmlns:svg="http://www.w3.org/2000/svg"
   xmlns="http://www.w3.org/2000/svg"
   xmlns:sodipodi="http://sodipodi.sourceforge.net/DTD/sodipodi-0.dtd"
   xmlns:inkscape="http://www.inkscape.org/namespaces/inkscape"
   id="Layer_1"
   xml:space="preserve"
   version="1.0"
   viewBox="0 0 187.93751 163"
   inkscape:version="0.92.0 r15299"
   sodipodi:docname="lock1.svg"
   width="200.46667"
   height="173.86667"><defs
   id="defs16"><clipPath
     clipPathUnits="userSpaceOnUse"
     id="clipPath3695"><g
       inkscape:label="Clip"
       id="use3697"><rect
         clip-path="url(#clipPath3724)"
         y="4.294611"
         x="4.4898205"
         height="54.073055"
         width="99.947304"
         id="rect3782"
         style="fill:#00ffff;stroke-width:0.9375" /></g></clipPath><clipPath
     clipPathUnits="userSpaceOnUse"
     id="clipPath3724"><path
       id="path3726"
       style="fill:#242424;fill-rule:evenodd;stroke-width:1"
       d="m 56.528162,29.980467 c 12.105,0 19.902,12.698 20.064,28.445001 H 36.464161 c 0.163,-15.747001 7.959,-28.445001 20.064001,-28.445001 z m 0,-15.723 c -18.861001,0 -34.144,19.958 -34.144,44.575 l 0.008,0.618 c -6.415,2.349 -10.982999,8.487 -10.982999,15.69 v 39.206003 c 0,17.46 20.201999,31.61 45.119,31.61 24.918,0 45.121007,-14.15 45.121007,-31.61 V 75.140467 c 0,-7.203 -4.570005,-13.341 -10.984007,-15.69 l 0.008,-0.618 c 0,-24.617 -15.283999,-44.575 -34.144999,-44.575 z M 43.724161,95.505465 c 0,-7.048997 5.731,-12.763997 12.804001,-12.763997 7.072999,0 12.804,5.715 12.804,12.763997 0,4.512005 -2.349,8.481005 -5.894001,10.751005 v 11.74 h -13.82 v -11.74 c -3.545,-2.27 -5.894,-6.239 -5.894,-10.751005 z"
       inkscape:connector-curvature="0" /></clipPath></defs><sodipodi:namedview
   pagecolor="#ffffff"
   bordercolor="#666666"
   borderopacity="1"
   objecttolerance="10"
   gridtolerance="10"
   guidetolerance="10"
   inkscape:pageopacity="0"
   inkscape:pageshadow="2"
   inkscape:window-width="1920"
   inkscape:window-height="1018"
   id="namedview14"
   showgrid="false"
   inkscape:zoom="3.395902"
   inkscape:cx="173.99217"
   inkscape:cy="56.507622"
   inkscape:window-x="1912"
   inkscape:window-y="-8"
   inkscape:window-maximized="1"
   inkscape:current-layer="layer2" />

<metadata
   id="metadata11"><rdf:RDF><cc:Work><dc:format>image/svg+xml</dc:format><dc:type
         rdf:resource="http://purl.org/dc/dcmitype/StillImage" /><cc:license
         rdf:resource="http://creativecommons.org/publicdomain/zero/1.0/" /><dc:publisher><cc:Agent
           rdf:about="http://openclipart.org/"><dc:title>Openclipart</dc:title></cc:Agent></dc:publisher><dc:title></dc:title><dc:date>2010-06-25T18:33:28</dc:date><dc:description>a simple rounded padlock.</dc:description><dc:source>https://openclipart.org/detail/68545/padlock-icon-(rounded)-by-jaschon</dc:source><dc:creator><cc:Agent><dc:title>jaschon</dc:title></cc:Agent></dc:creator><dc:subject><rdf:Bag><rdf:li>black</rdf:li><rdf:li>black and white</rdf:li><rdf:li>key</rdf:li><rdf:li>keyhole</rdf:li><rdf:li>lock</rdf:li><rdf:li>padlock</rdf:li><rdf:li>security</rdf:li><rdf:li>silhouette</rdf:li><rdf:li>symbol</rdf:li><rdf:li>tool</rdf:li></rdf:Bag></dc:subject></cc:Work><cc:License
       rdf:about="http://creativecommons.org/publicdomain/zero/1.0/"><cc:permits
         rdf:resource="http://creativecommons.org/ns#Reproduction" /><cc:permits
         rdf:resource="http://creativecommons.org/ns#Distribution" /><cc:permits
         rdf:resource="http://creativecommons.org/ns#DerivativeWorks" /></cc:License></rdf:RDF></metadata><g
   inkscape:groupmode="layer"
   id="layer1"
   inkscape:label="Layer 1"><g
     id="g3702"
     transform="translate(41.901798,12.63967)" /></g><g
   inkscape:groupmode="layer"
   id="layer2"
   inkscape:label="Layer 2"><path
     inkscape:connector-curvature="0"
     d="m 80.653005,30.948037 c 12.105,0 19.902005,12.698 20.064005,28.445 H 60.589005 c 0.163,-15.747 7.959,-28.445 20.064,-28.445 z m 0,-15.723001 c -18.861,0 -34.144,19.958001 -34.144,44.575001 l 0.008,0.618 c -6.415,2.349 -10.983,8.487 -10.983,15.69 v 39.206003 c 0,17.46 20.202,31.61 45.119,31.61 24.917995,0 45.121005,-14.15 45.121005,-31.61 V 76.108037 c 0,-7.203 -4.57,-13.341 -10.984,-15.69 l 0.008,-0.618 c 0,-24.617 -15.284005,-44.575001 -34.145005,-44.575001 z m -12.804,81.248001 c 0,-7.049 5.731,-12.764 12.804,-12.764 7.073,0 12.804,5.715 12.804,12.764 0,4.512003 -2.349,8.481003 -5.894,10.751003 v 11.74 h -13.82 v -11.74 c -3.545,-2.27 -5.894,-6.239 -5.894,-10.751003 z"
     style="fill:#242424;fill-rule:evenodd"
     id="path3-9" /></g></svg>